<?xml version="1.0" encoding="UTF-8" standalone="no"?>
<!DOCTYPE svg PUBLIC "-//W3C//DTD SVG 1.1//EN" "http://www.w3.org/Graphics/SVG/1.1/DTD/svg11.dtd">
<svg width="100%" height="100%" viewBox="0 0 800 800" version="1.1" xmlns="http://www.w3.org/2000/svg" xmlns:xlink="http://www.w3.org/1999/xlink" xml:space="preserve" xmlns:serif="http://www.serif.com/" style="fill-rule:evenodd;clip-rule:evenodd;stroke-linejoin:round;stroke-miterlimit:2;">
    <g transform="matrix(1,0,0,1,-49.2761,0)">
        <path d="M436,364C429.534,357.061 425.935,347.92 425.935,338.435C425.935,317.864 442.864,300.935 463.435,300.935C472.92,300.935 482.061,304.534 489,311L575,397L575,162.5C575,141.928 591.928,125 612.5,125C633.072,125 650,141.928 650,162.5L650,397L736,311C742.939,304.534 752.08,300.935 761.565,300.935C782.136,300.935 799.065,317.864 799.065,338.435C799.065,347.92 795.466,357.061 789,364L639,514C632.008,521.017 622.506,524.976 612.6,525L612.4,525C602.494,524.976 592.992,521.017 586,514L436,364ZM150,525C129.428,525 112.5,508.072 112.5,487.5C112.5,466.928 129.428,450 150,450L409.523,450C430.095,450 447.023,466.928 447.023,487.5C447.023,508.072 430.095,525 409.523,525L150,525ZM112.5,637.5C112.5,658.2 129.3,675 150,675L562.727,675C583.299,675 600.227,658.072 600.227,637.5C600.227,616.928 583.299,600 562.727,600L150,600C129.428,600 112.5,616.928 112.5,637.5ZM150,375C129.428,375 112.5,358.072 112.5,337.5C112.5,316.928 129.428,300 150,300L300,300C320.572,300 337.5,316.928 337.5,337.5C337.5,358.072 320.572,375 300,375L150,375ZM112.5,187.5C112.5,208.2 129.3,225 150,225L212.007,225C232.579,225 249.507,208.072 249.507,187.5C249.507,166.928 232.579,150 212.007,150L150,150C129.428,150 112.5,166.928 112.5,187.5Z" style="fill-rule:nonzero;"/>
    </g>
</svg>
